<svg width="63" height="21" viewBox="0 0 63 21" fill="none" xmlns="http://www.w3.org/2000/svg">
<rect width="62.6776" height="21" rx="6" fill="#E84529"/>
<path d="M40.8768 5H40.0239V16H40.8768V5Z" fill="white"/>
<path d="M24.3895 5H23.5366V16H24.3895V5Z" fill="white"/>
<path d="M11 10.5011C11 7.41776 12.9141 5.00317 15.7382 5.00317C18.5474 5.00317 20.4467 7.38813 20.4467 10.5011C20.4467 13.5844 18.5485 15.9989 15.7085 15.9989C12.8686 15.9989 11 13.614 11 10.5011ZM18.0469 10.5011C18.0469 8.57214 17.1052 7.11408 15.7085 7.11408C14.3108 7.11408 13.3998 8.52665 13.3998 10.5011C13.3998 12.4448 14.3267 13.888 15.7382 13.888C17.1507 13.888 18.0469 12.4596 18.0469 10.5011Z" fill="white"/>
<path d="M27.4839 10.5011C27.4839 7.41776 29.398 5.00317 32.2221 5.00317C35.0313 5.00317 36.9306 7.38813 36.9306 10.5011C36.9306 13.5844 35.0324 15.9989 32.1924 15.9989C29.3525 15.9989 27.4839 13.614 27.4839 10.5011ZM34.5319 10.5011C34.5319 8.57214 33.5902 7.11408 32.1935 7.11408C30.7957 7.11408 29.8847 8.52665 29.8847 10.5011C29.8847 12.4448 30.8116 13.888 32.2231 13.888C33.6357 13.888 34.5319 12.4596 34.5319 10.5011Z" fill="white"/>
<path d="M43.7046 14.161L45.314 12.6268C46.043 13.4468 46.8027 13.9029 47.8809 13.9029C48.7623 13.9029 49.3845 13.4013 49.3845 12.5813C49.3845 11.7158 48.6099 11.2301 47.3042 11.2301H46.3319L45.9679 9.74136L48.5041 7.19028H44.3278V5.18518H51.5112V6.94692L48.8226 9.51387C50.2659 9.75723 51.6774 10.5159 51.6774 12.521C51.6774 14.5261 50.2193 15.999 47.8502 15.999C45.9372 15.999 44.6156 15.2392 43.7046 14.161Z" fill="white"/>
</svg>