<svg width="144" height="48" viewBox="0 0 144 48" fill="none" xmlns="http://www.w3.org/2000/svg">
<g clip-path="url(#clip0_11998_265837)">
<path d="M30.4472 22.932C30.4472 19.6451 33.154 18.119 33.2717 18.0016C31.7418 15.7711 29.3881 15.5364 28.5643 15.419C26.5637 15.1842 24.6806 16.5929 23.6215 16.5929C22.5623 16.5929 21.0324 15.419 19.3849 15.419C17.2665 15.419 15.2658 16.7103 14.089 18.5885C11.8529 22.4625 13.5005 28.332 15.7366 31.5016C16.7958 33.0277 18.0903 34.7885 19.7379 34.7885C21.3854 34.6711 21.9739 33.732 23.9745 33.732C25.9752 33.732 26.4459 34.7885 28.2113 34.7885C29.9765 34.7885 31.0357 33.2625 32.0948 31.619C33.3894 29.8581 33.8601 28.0972 33.8601 27.9798C33.8601 28.0972 30.4472 26.8059 30.4472 22.932Z" fill="white"/>
<path d="M27.1516 13.4231C27.9755 12.3666 28.6816 10.8405 28.4462 9.31445C27.1516 9.31445 25.6218 10.1362 24.6803 11.3101C23.8565 12.2492 23.1504 13.7753 23.3857 15.3014C24.798 15.3014 26.3279 14.4797 27.1516 13.4231Z" fill="white"/>
<path d="M51.0418 30.9158H45.5106L44.216 34.9071H41.8623L47.1582 20.3506H49.5119L54.8077 34.9071H52.4541L51.0418 30.9158ZM46.099 29.1549H50.5711L48.335 22.6984H48.2174L46.099 29.1549Z" fill="white"/>
<path d="M66.223 29.6242C66.223 32.9111 64.4578 35.0242 61.751 35.0242C60.221 35.0242 59.0442 34.3198 58.4558 33.1459V38.4285H56.2197V24.3415H58.338V26.1024C58.9265 24.9285 60.221 24.2241 61.751 24.2241C64.34 24.1068 66.223 26.3372 66.223 29.6242ZM63.8693 29.6242C63.8693 27.5111 62.8101 26.1024 61.0449 26.1024C59.3973 26.1024 58.2204 27.5111 58.2204 29.6242C58.2204 31.7372 59.3973 33.1459 61.0449 33.1459C62.8101 33.1459 63.8693 31.7372 63.8693 29.6242Z" fill="white"/>
<path d="M77.8744 29.6242C77.8744 32.9111 76.1091 35.0242 73.4023 35.0242C71.8724 35.0242 70.6955 34.3198 70.1072 33.1459V38.4285H67.8711V24.3415H69.9894V26.1024C70.5779 24.9285 71.8724 24.2241 73.4023 24.2241C76.1091 24.1068 77.8744 26.3372 77.8744 29.6242ZM75.6384 29.6242C75.6384 27.5111 74.5792 26.1024 72.814 26.1024C71.1663 26.1024 69.9894 27.5111 69.9894 29.6242C69.9894 31.7372 71.1663 33.1459 72.814 33.1459C74.5792 33.1459 75.6384 31.7372 75.6384 29.6242Z" fill="white"/>
<path d="M85.6413 30.7969C85.759 32.2056 87.1712 33.1447 89.1719 33.1447C91.0548 33.1447 92.3494 32.2056 92.3494 30.9143C92.3494 29.7403 91.5256 29.1534 89.6426 28.6838L87.7596 28.2143C85.0528 27.5099 83.876 26.336 83.876 24.3403C83.876 21.8751 86.1121 20.1143 89.1719 20.1143C92.2317 20.1143 94.35 21.8751 94.4677 24.3403H92.2317C92.114 22.9316 90.9371 21.9925 89.1719 21.9925C87.4065 21.9925 86.2297 22.9316 86.2297 24.223C86.2297 25.2795 87.0535 25.8664 88.9365 26.336L90.5841 26.6882C93.5263 27.3925 94.8207 28.5664 94.8207 30.6795C94.8207 33.3795 92.5848 35.1403 89.1719 35.1403C85.8767 35.1403 83.7584 33.4969 83.6406 30.7969H85.6413Z" fill="white"/>
<path d="M99.2928 21.7588V24.224H101.293V25.9849H99.2928V31.8544C99.2928 32.7936 99.6458 33.1457 100.587 33.1457C100.823 33.1457 101.176 33.1457 101.293 33.1457V34.9066C101.058 35.024 100.587 35.024 100.117 35.024C97.9982 35.024 97.1745 34.2023 97.1745 32.2066V26.1023H95.6445V24.3414H97.1745V21.8762H99.2928V21.7588Z" fill="white"/>
<path d="M102.588 29.6236C102.588 26.3367 104.589 24.2236 107.648 24.2236C110.708 24.2236 112.709 26.3367 112.709 29.6236C112.709 33.028 110.708 35.0236 107.648 35.0236C104.471 35.0236 102.588 32.9106 102.588 29.6236ZM110.473 29.6236C110.473 27.2758 109.414 25.9845 107.648 25.9845C105.883 25.9845 104.824 27.2758 104.824 29.6236C104.824 31.9715 105.883 33.2628 107.648 33.2628C109.414 33.2628 110.473 31.8541 110.473 29.6236Z" fill="white"/>
<path d="M114.475 24.2236H116.593V26.1019C116.946 24.928 117.888 24.2236 119.182 24.2236C119.535 24.2236 119.77 24.2236 119.889 24.341V26.3367C119.77 26.2193 119.299 26.2193 118.947 26.2193C117.535 26.2193 116.711 27.1584 116.711 28.6845V35.0236H114.475V24.2236Z" fill="white"/>
<path d="M130.009 31.7359C129.774 33.6142 127.773 35.0229 125.419 35.0229C122.36 35.0229 120.359 32.9098 120.359 29.6229C120.359 26.3359 122.242 24.1055 125.302 24.1055C128.243 24.1055 130.126 26.1011 130.126 29.3881V30.0924H122.595V30.2098C122.595 31.9707 123.772 33.262 125.419 33.262C126.596 33.262 127.538 32.675 127.891 31.7359H130.009ZM122.595 28.5663H127.891C127.891 26.9229 126.831 25.8663 125.302 25.8663C123.772 25.8663 122.713 27.0403 122.595 28.5663Z" fill="white"/>
</g>
<path d="M47.7041 14.7925V15.667H42.9888V14.7925H47.7041ZM43.2612 14.7925V17.2402H42.2065L42.167 14.7925H43.2612ZM48.5566 14.7925L48.4907 17.2358H47.4536V14.7925H48.5566ZM46.9307 9.26855V10.1475H43.9775V9.26855H46.9307ZM47.7744 9.26855V15.667H46.6758V9.26855H47.7744ZM43.7578 9.26855H44.8608L44.707 11.8613C44.6836 12.2715 44.6411 12.6406 44.5796 12.9688C44.5181 13.2969 44.4434 13.5913 44.3555 13.8521C44.2705 14.1099 44.1738 14.3384 44.0654 14.5376C43.957 14.7339 43.8413 14.9038 43.7183 15.0474C43.5952 15.1909 43.4692 15.314 43.3403 15.4165C43.2144 15.5161 43.0898 15.5996 42.9668 15.667H42.3779V14.7925H42.6636C42.7427 14.7192 42.8306 14.6138 42.9272 14.4761C43.0239 14.3354 43.1177 14.1523 43.2085 13.9268C43.3022 13.6982 43.3843 13.4155 43.4546 13.0786C43.5249 12.7417 43.5732 12.3359 43.5996 11.8613L43.7578 9.26855ZM54.3882 12.292V12.6436C54.3882 13.127 54.3252 13.5605 54.1992 13.9443C54.0732 14.3281 53.8931 14.6548 53.6587 14.9243C53.4272 15.1938 53.1489 15.4004 52.8237 15.5439C52.4985 15.6846 52.1382 15.7549 51.7427 15.7549C51.3501 15.7549 50.9912 15.6846 50.666 15.5439C50.3438 15.4004 50.064 15.1938 49.8267 14.9243C49.5894 14.6548 49.4048 14.3281 49.2729 13.9443C49.144 13.5605 49.0796 13.127 49.0796 12.6436V12.292C49.0796 11.8086 49.144 11.3765 49.2729 10.9956C49.4019 10.6118 49.5835 10.2852 49.8179 10.0156C50.0552 9.74316 50.335 9.53662 50.6572 9.396C50.9824 9.25244 51.3413 9.18066 51.7339 9.18066C52.1294 9.18066 52.4897 9.25244 52.8149 9.396C53.1401 9.53662 53.4199 9.74316 53.6543 10.0156C53.8887 10.2852 54.0688 10.6118 54.1948 10.9956C54.3237 11.3765 54.3882 11.8086 54.3882 12.292ZM53.2852 12.6436V12.2832C53.2852 11.9258 53.25 11.6108 53.1797 11.3384C53.1123 11.063 53.0112 10.833 52.8765 10.6484C52.7446 10.4609 52.582 10.3203 52.3887 10.2266C52.1953 10.1299 51.9771 10.0815 51.7339 10.0815C51.4907 10.0815 51.2739 10.1299 51.0835 10.2266C50.8931 10.3203 50.7305 10.4609 50.5957 10.6484C50.4639 10.833 50.3628 11.063 50.2925 11.3384C50.2222 11.6108 50.187 11.9258 50.187 12.2832V12.6436C50.187 13.001 50.2222 13.3174 50.2925 13.5928C50.3628 13.8682 50.4653 14.1011 50.6001 14.2915C50.7378 14.479 50.9019 14.6211 51.0923 14.7178C51.2827 14.8115 51.4995 14.8584 51.7427 14.8584C51.9888 14.8584 52.207 14.8115 52.3975 14.7178C52.5879 14.6211 52.749 14.479 52.8809 14.2915C53.0127 14.1011 53.1123 13.8682 53.1797 13.5928C53.25 13.3174 53.2852 13.001 53.2852 12.6436ZM59.2705 13.584H60.3691C60.334 14.0029 60.2168 14.3765 60.0176 14.7046C59.8184 15.0298 59.5386 15.2861 59.1782 15.4736C58.8179 15.6611 58.3799 15.7549 57.8643 15.7549C57.4688 15.7549 57.1128 15.6846 56.7964 15.5439C56.48 15.4004 56.209 15.1982 55.9834 14.9375C55.7578 14.6738 55.585 14.356 55.4648 13.9839C55.3477 13.6118 55.2891 13.1958 55.2891 12.7358V12.2041C55.2891 11.7441 55.3491 11.3281 55.4692 10.9561C55.5923 10.584 55.7681 10.2661 55.9966 10.0024C56.2251 9.73584 56.499 9.53223 56.8184 9.3916C57.1406 9.25098 57.5024 9.18066 57.9038 9.18066C58.4136 9.18066 58.8442 9.27441 59.1958 9.46191C59.5474 9.64941 59.8198 9.90869 60.0132 10.2397C60.2095 10.5708 60.3296 10.9502 60.3735 11.3779H59.2749C59.2456 11.1025 59.1812 10.8667 59.0815 10.6704C58.9849 10.4741 58.8413 10.3247 58.6509 10.2222C58.4604 10.1167 58.2114 10.064 57.9038 10.064C57.6519 10.064 57.4321 10.1108 57.2446 10.2046C57.0571 10.2983 56.9004 10.436 56.7744 10.6177C56.6484 10.7993 56.5532 11.0234 56.4888 11.29C56.4272 11.5537 56.3965 11.8555 56.3965 12.1953V12.7358C56.3965 13.0581 56.4243 13.3511 56.48 13.6147C56.5386 13.8755 56.6265 14.0996 56.7437 14.2871C56.8638 14.4746 57.0161 14.6196 57.2007 14.7222C57.3853 14.8247 57.6064 14.876 57.8643 14.876C58.1777 14.876 58.4312 14.8262 58.6245 14.7266C58.8208 14.627 58.9688 14.4819 59.0684 14.2915C59.1709 14.0981 59.2383 13.8623 59.2705 13.584ZM63.8716 9.26855V15.667H62.7773V9.26855H63.8716ZM65.8799 9.26855V10.1475H60.7866V9.26855H65.8799ZM68.7188 13.439L70.3447 9.26855H71.562L69.3384 14.5068C69.2681 14.668 69.1875 14.8247 69.0967 14.9771C69.0088 15.1265 68.9019 15.2598 68.7759 15.377C68.6499 15.4941 68.4976 15.5879 68.3188 15.6582C68.1401 15.7256 67.9233 15.7593 67.6685 15.7593C67.6011 15.7593 67.519 15.7563 67.4224 15.7505C67.3286 15.7446 67.2598 15.7388 67.2158 15.7329L67.2246 14.8672C67.2598 14.873 67.3184 14.8774 67.4004 14.8804C67.4854 14.8833 67.5469 14.8848 67.585 14.8848C67.7549 14.8848 67.8896 14.8569 67.9893 14.8013C68.0889 14.7427 68.168 14.665 68.2266 14.5684C68.2881 14.4688 68.3423 14.3604 68.3892 14.2432L68.7188 13.439ZM67.4971 9.26855L69.1055 12.8105L69.4219 13.9619L68.5649 13.9927L66.293 9.26855H67.4971ZM77.4639 9.26855V15.667H76.3652V10.1475H73.522V15.667H72.4233V9.26855H77.4639ZM83.0186 11.9404V12.8149H79.6216V11.9404H83.0186ZM79.894 9.26855V15.667H78.791V9.26855H79.894ZM83.8667 9.26855V15.667H82.7681V9.26855H83.8667ZM90.2827 12.292V12.6436C90.2827 13.127 90.2197 13.5605 90.0938 13.9443C89.9678 14.3281 89.7876 14.6548 89.5532 14.9243C89.3218 15.1938 89.0435 15.4004 88.7183 15.5439C88.3931 15.6846 88.0327 15.7549 87.6372 15.7549C87.2446 15.7549 86.8857 15.6846 86.5605 15.5439C86.2383 15.4004 85.9585 15.1938 85.7212 14.9243C85.4839 14.6548 85.2993 14.3281 85.1675 13.9443C85.0386 13.5605 84.9741 13.127 84.9741 12.6436V12.292C84.9741 11.8086 85.0386 11.3765 85.1675 10.9956C85.2964 10.6118 85.478 10.2852 85.7124 10.0156C85.9497 9.74316 86.2295 9.53662 86.5518 9.396C86.877 9.25244 87.2358 9.18066 87.6284 9.18066C88.0239 9.18066 88.3843 9.25244 88.7095 9.396C89.0347 9.53662 89.3145 9.74316 89.5488 10.0156C89.7832 10.2852 89.9634 10.6118 90.0894 10.9956C90.2183 11.3765 90.2827 11.8086 90.2827 12.292ZM89.1797 12.6436V12.2832C89.1797 11.9258 89.1445 11.6108 89.0742 11.3384C89.0068 11.063 88.9058 10.833 88.771 10.6484C88.6392 10.4609 88.4766 10.3203 88.2832 10.2266C88.0898 10.1299 87.8716 10.0815 87.6284 10.0815C87.3853 10.0815 87.1685 10.1299 86.978 10.2266C86.7876 10.3203 86.625 10.4609 86.4902 10.6484C86.3584 10.833 86.2573 11.063 86.187 11.3384C86.1167 11.6108 86.0815 11.9258 86.0815 12.2832V12.6436C86.0815 13.001 86.1167 13.3174 86.187 13.5928C86.2573 13.8682 86.3599 14.1011 86.4946 14.2915C86.6323 14.479 86.7964 14.6211 86.9868 14.7178C87.1772 14.8115 87.394 14.8584 87.6372 14.8584C87.8833 14.8584 88.1016 14.8115 88.292 14.7178C88.4824 14.6211 88.6436 14.479 88.7754 14.2915C88.9072 14.1011 89.0068 13.8682 89.0742 13.5928C89.1445 13.3174 89.1797 13.001 89.1797 12.6436ZM96.0264 12.7754H94.396L94.3872 11.9712H95.811C96.0513 11.9712 96.2549 11.936 96.4219 11.8657C96.5918 11.7925 96.7207 11.6885 96.8086 11.5537C96.8965 11.416 96.9404 11.2505 96.9404 11.0571C96.9404 10.8433 96.8994 10.6689 96.8174 10.5342C96.7354 10.3994 96.6094 10.3013 96.4395 10.2397C96.2725 10.1782 96.0586 10.1475 95.7979 10.1475H94.73V15.667H93.627V9.26855H95.7979C96.1494 9.26855 96.4629 9.30225 96.7383 9.36963C97.0166 9.43701 97.2524 9.54248 97.4458 9.68604C97.6421 9.82666 97.79 10.0054 97.8896 10.2222C97.9922 10.439 98.0435 10.6968 98.0435 10.9956C98.0435 11.2593 97.9805 11.501 97.8545 11.7207C97.7285 11.9375 97.5425 12.1147 97.2964 12.2524C97.0503 12.3901 96.7441 12.4722 96.3779 12.4985L96.0264 12.7754ZM95.978 15.667H94.0488L94.5454 14.7925H95.978C96.2271 14.7925 96.4351 14.7515 96.6021 14.6694C96.769 14.5845 96.8936 14.4688 96.9756 14.3223C97.0605 14.1729 97.103 13.9985 97.103 13.7993C97.103 13.5913 97.0664 13.4111 96.9932 13.2588C96.9199 13.1035 96.8042 12.9849 96.646 12.9028C96.4878 12.8179 96.2812 12.7754 96.0264 12.7754H94.7871L94.7959 11.9712H96.4087L96.6592 12.2744C97.0107 12.2861 97.2993 12.3638 97.5249 12.5073C97.7534 12.6509 97.9233 12.8369 98.0347 13.0654C98.146 13.2939 98.2017 13.54 98.2017 13.8037C98.2017 14.2109 98.1123 14.5522 97.9336 14.8276C97.7578 15.103 97.5044 15.3125 97.1733 15.4561C96.8423 15.5967 96.4438 15.667 95.978 15.667Z" fill="white"/>
<rect x="1.08333" y="1.08333" width="141.225" height="45.1667" rx="5.41667" stroke="#D8D8D8" stroke-opacity="0.2" stroke-width="2.16667"/>
<defs>
<clipPath id="clip0_11998_265837">
<rect x="13" y="8.66699" width="117.391" height="30" rx="6.52174" fill="white"/>
</clipPath>
</defs>
</svg>
