<svg width="108" height="37" viewBox="0 0 108 37" fill="none" xmlns="http://www.w3.org/2000/svg">
<rect y="0.814453" width="108" height="36" rx="5" fill="white"/>
<path d="M22.3763 19.0849C22.3763 16.5649 24.4515 15.3949 24.5417 15.3049C23.3688 13.5949 21.5643 13.4149 20.9327 13.3249C19.3989 13.1449 17.9552 14.2249 17.1432 14.2249C16.3312 14.2249 15.1583 13.3249 13.8951 13.3249C12.2711 13.3249 10.7372 14.3149 9.83495 15.7549C8.12066 18.7249 9.38378 23.2249 11.0981 25.6549C11.9102 26.8249 12.9026 28.1749 14.1658 28.1749C15.4289 28.0849 15.8801 27.3649 17.4139 27.3649C18.9477 27.3649 19.3086 28.1749 20.662 28.1749C22.0154 28.1749 22.8274 27.0049 23.6394 25.7449C24.6319 24.3949 24.9928 23.0449 24.9928 22.9549C24.9928 23.0449 22.3763 22.0549 22.3763 19.0849Z" fill="black"/>
<path d="M19.8501 11.7945C20.4817 10.9845 21.0231 9.81452 20.8426 8.64453C19.8501 8.64453 18.6772 9.27453 17.9554 10.1745C17.3238 10.8945 16.7825 12.0645 16.9629 13.2345C18.0456 13.2345 19.2186 12.6045 19.8501 11.7945Z" fill="black"/>
<path d="M38.1646 25.2045H33.924L32.9315 28.2645H31.127L35.1871 17.1045H36.9916L41.0518 28.2645H39.2473L38.1646 25.2045ZM34.3751 23.8545H37.8037L36.0894 18.9045H35.9992L34.3751 23.8545Z" fill="black"/>
<path d="M49.8039 24.2147C49.8039 26.7347 48.4506 28.3547 46.3754 28.3547C45.2024 28.3547 44.3002 27.8147 43.8491 26.9147V30.9647H42.1348V20.1647H43.7588V21.5147C44.21 20.6147 45.2024 20.0747 46.3754 20.0747C48.3603 19.9847 49.8039 21.6947 49.8039 24.2147ZM47.9994 24.2147C47.9994 22.5947 47.1874 21.5147 45.834 21.5147C44.5709 21.5147 43.6686 22.5947 43.6686 24.2147C43.6686 25.8347 44.5709 26.9147 45.834 26.9147C47.1874 26.9147 47.9994 25.8347 47.9994 24.2147Z" fill="black"/>
<path d="M58.7375 24.2147C58.7375 26.7347 57.3842 28.3547 55.309 28.3547C54.136 28.3547 53.2338 27.8147 52.7827 26.9147V30.9647H51.0684V20.1647H52.6924V21.5147C53.1436 20.6147 54.136 20.0747 55.309 20.0747C57.3842 19.9847 58.7375 21.6947 58.7375 24.2147ZM57.0233 24.2147C57.0233 22.5947 56.2112 21.5147 54.8579 21.5147C53.5947 21.5147 52.6924 22.5947 52.6924 24.2147C52.6924 25.8347 53.5947 26.9147 54.8579 26.9147C56.2112 26.9147 57.0233 25.8347 57.0233 24.2147Z" fill="black"/>
<path d="M64.6921 25.1148C64.7823 26.1948 65.865 26.9148 67.3988 26.9148C68.8424 26.9148 69.8349 26.1948 69.8349 25.2048C69.8349 24.3048 69.2033 23.8548 67.7597 23.4948L66.3161 23.1348C64.2409 22.5948 63.3387 21.6948 63.3387 20.1648C63.3387 18.2748 65.053 16.9248 67.3988 16.9248C69.7447 16.9248 71.3687 18.2748 71.459 20.1648H69.7447C69.6545 19.0848 68.7522 18.3648 67.3988 18.3648C66.0454 18.3648 65.1432 19.0848 65.1432 20.0748C65.1432 20.8848 65.7748 21.3348 67.2184 21.6948L68.4815 21.9648C70.7372 22.5048 71.7296 23.4048 71.7296 25.0248C71.7296 27.0948 70.0154 28.4448 67.3988 28.4448C64.8725 28.4448 63.2485 27.1848 63.1582 25.1148H64.6921Z" fill="black"/>
<path d="M75.1583 18.1846V20.0746H76.6921V21.4246H75.1583V25.9246C75.1583 26.6446 75.429 26.9146 76.1508 26.9146C76.3312 26.9146 76.6019 26.9146 76.6921 26.9146V28.2646C76.5117 28.3546 76.1508 28.3546 75.7899 28.3546C74.1658 28.3546 73.5343 27.7246 73.5343 26.1946V21.5146H72.3613V20.1646H73.5343V18.2746H75.1583V18.1846Z" fill="black"/>
<path d="M77.6836 24.2142C77.6836 21.6942 79.2175 20.0742 81.5633 20.0742C83.9092 20.0742 85.4429 21.6942 85.4429 24.2142C85.4429 26.8242 83.9092 28.3542 81.5633 28.3542C79.1272 28.3542 77.6836 26.7342 77.6836 24.2142ZM83.7287 24.2142C83.7287 22.4142 82.9166 21.4242 81.5633 21.4242C80.2099 21.4242 79.3979 22.4142 79.3979 24.2142C79.3979 26.0142 80.2099 27.0042 81.5633 27.0042C82.9166 27.0042 83.7287 25.9242 83.7287 24.2142Z" fill="black"/>
<path d="M86.7969 20.0742H88.421V21.5142C88.6916 20.6142 89.4134 20.0742 90.4059 20.0742C90.6768 20.0742 90.8568 20.0742 90.9477 20.1642V21.6942C90.8568 21.6042 90.4959 21.6042 90.2259 21.6042C89.1428 21.6042 88.5112 22.3242 88.5112 23.4942V28.3542H86.7969V20.0742Z" fill="black"/>
<path d="M98.7066 25.8344C98.5266 27.2744 96.9921 28.3544 95.1876 28.3544C92.8422 28.3544 91.3086 26.7344 91.3086 24.2144C91.3086 21.6944 92.7522 19.9844 95.0976 19.9844C97.353 19.9844 98.7966 21.5144 98.7966 24.0344V24.5744H93.0222V24.6644C93.0222 26.0144 93.9249 27.0044 95.1876 27.0044C96.0903 27.0044 96.8121 26.5544 97.083 25.8344H98.7066ZM93.0222 23.4044H97.083C97.083 22.1444 96.2703 21.3344 95.0976 21.3344C93.9249 21.3344 93.1131 22.2344 93.0222 23.4044Z" fill="black"/>
<path d="M35.5664 12.7544V13.4346H31.8989V12.7544H35.5664ZM32.1108 12.7544V14.6582H31.2905L31.2598 12.7544H32.1108ZM36.2295 12.7544L36.1782 14.6548H35.3716V12.7544H36.2295ZM34.9648 8.45801V9.1416H32.668V8.45801H34.9648ZM35.6211 8.45801V13.4346H34.7666V8.45801H35.6211ZM32.4971 8.45801H33.355L33.2354 10.4746C33.2171 10.7936 33.1841 11.0807 33.1362 11.3359C33.0884 11.5911 33.0303 11.8201 32.9619 12.0229C32.8958 12.2235 32.8206 12.4012 32.7363 12.5562C32.652 12.7088 32.562 12.841 32.4663 12.9526C32.3706 13.0643 32.2726 13.16 32.1724 13.2397C32.0744 13.3172 31.9775 13.3822 31.8818 13.4346H31.4238V12.7544H31.646C31.7075 12.6974 31.7759 12.6154 31.8511 12.5083C31.9263 12.3989 31.9992 12.2565 32.0698 12.0811C32.1427 11.9033 32.2065 11.6834 32.2612 11.4214C32.3159 11.1593 32.3535 10.8438 32.374 10.4746L32.4971 8.45801ZM40.7651 10.8096V11.083C40.7651 11.459 40.7161 11.7962 40.6182 12.0947C40.5202 12.3932 40.38 12.6473 40.1978 12.8569C40.0177 13.0666 39.8013 13.2272 39.5483 13.3389C39.2954 13.4482 39.0151 13.5029 38.7075 13.5029C38.4022 13.5029 38.123 13.4482 37.8701 13.3389C37.6195 13.2272 37.4019 13.0666 37.2173 12.8569C37.0327 12.6473 36.8892 12.3932 36.7866 12.0947C36.6864 11.7962 36.6362 11.459 36.6362 11.083V10.8096C36.6362 10.4336 36.6864 10.0975 36.7866 9.80127C36.8869 9.50277 37.0282 9.2487 37.2104 9.03906C37.395 8.82715 37.6126 8.6665 37.8633 8.55713C38.1162 8.44548 38.3953 8.38965 38.7007 8.38965C39.0083 8.38965 39.2886 8.44548 39.5415 8.55713C39.7944 8.6665 40.012 8.82715 40.1943 9.03906C40.3766 9.2487 40.5168 9.50277 40.6147 9.80127C40.715 10.0975 40.7651 10.4336 40.7651 10.8096ZM39.9072 11.083V10.8027C39.9072 10.5247 39.8799 10.2798 39.8252 10.0679C39.7728 9.85368 39.6942 9.6748 39.5894 9.53125C39.4868 9.38542 39.3604 9.27604 39.21 9.20312C39.0596 9.12793 38.8898 9.09033 38.7007 9.09033C38.5116 9.09033 38.3429 9.12793 38.1948 9.20312C38.0467 9.27604 37.9202 9.38542 37.8154 9.53125C37.7129 9.6748 37.6343 9.85368 37.5796 10.0679C37.5249 10.2798 37.4976 10.5247 37.4976 10.8027V11.083C37.4976 11.361 37.5249 11.6071 37.5796 11.8213C37.6343 12.0355 37.714 12.2166 37.8188 12.3647C37.9259 12.5106 38.0535 12.6211 38.2017 12.6963C38.3498 12.7692 38.5184 12.8057 38.7075 12.8057C38.8989 12.8057 39.0687 12.7692 39.2168 12.6963C39.3649 12.6211 39.4902 12.5106 39.5928 12.3647C39.6953 12.2166 39.7728 12.0355 39.8252 11.8213C39.8799 11.6071 39.9072 11.361 39.9072 11.083ZM44.5625 11.8145H45.417C45.3896 12.1403 45.2985 12.4308 45.1436 12.686C44.9886 12.939 44.771 13.1383 44.4907 13.2842C44.2104 13.43 43.8698 13.5029 43.4688 13.5029C43.1611 13.5029 42.8843 13.4482 42.6382 13.3389C42.3921 13.2272 42.1813 13.07 42.0059 12.8672C41.8304 12.6621 41.696 12.4149 41.6025 12.1255C41.5114 11.8361 41.4658 11.5125 41.4658 11.1548V10.7412C41.4658 10.3835 41.5125 10.0599 41.606 9.77051C41.7017 9.48112 41.8384 9.23389 42.0161 9.02881C42.1938 8.82145 42.4069 8.66309 42.6553 8.55371C42.9059 8.44434 43.1873 8.38965 43.4995 8.38965C43.896 8.38965 44.231 8.46257 44.5044 8.6084C44.7778 8.75423 44.9897 8.95589 45.1401 9.21338C45.2928 9.47087 45.3862 9.76595 45.4204 10.0986H44.5659C44.5431 9.88444 44.493 9.70101 44.4155 9.54834C44.3403 9.39567 44.2287 9.27946 44.0806 9.19971C43.9325 9.11768 43.7388 9.07666 43.4995 9.07666C43.3035 9.07666 43.1326 9.11312 42.9868 9.18604C42.841 9.25895 42.7191 9.36605 42.6211 9.50732C42.5231 9.6486 42.4491 9.82292 42.3989 10.0303C42.3511 10.2354 42.3271 10.4701 42.3271 10.7344V11.1548C42.3271 11.4054 42.3488 11.6333 42.3921 11.8384C42.4377 12.0412 42.506 12.2155 42.5972 12.3613C42.6906 12.5072 42.8091 12.62 42.9526 12.6997C43.0962 12.7795 43.2682 12.8193 43.4688 12.8193C43.7126 12.8193 43.9097 12.7806 44.0601 12.7031C44.2127 12.6257 44.3278 12.5129 44.4053 12.3647C44.485 12.2144 44.5374 12.0309 44.5625 11.8145ZM48.1411 8.45801V13.4346H47.29V8.45801H48.1411ZM49.7031 8.45801V9.1416H45.7417V8.45801H49.7031ZM51.9111 11.7017L53.1758 8.45801H54.1226L52.3931 12.5322C52.3384 12.6576 52.2757 12.7795 52.2051 12.8979C52.1367 13.0142 52.0535 13.1178 51.9556 13.209C51.8576 13.3001 51.7391 13.373 51.6001 13.4277C51.4611 13.4801 51.2925 13.5063 51.0942 13.5063C51.0418 13.5063 50.978 13.5041 50.9028 13.4995C50.8299 13.495 50.7764 13.4904 50.7422 13.4858L50.749 12.8125C50.7764 12.8171 50.8219 12.8205 50.8857 12.8228C50.9518 12.825 50.9997 12.8262 51.0293 12.8262C51.1615 12.8262 51.2663 12.8045 51.3438 12.7612C51.4212 12.7157 51.4827 12.6553 51.5283 12.5801C51.5762 12.5026 51.6183 12.4183 51.6548 12.3271L51.9111 11.7017ZM50.9609 8.45801L52.2119 11.2129L52.458 12.1084L51.7915 12.1323L50.0244 8.45801H50.9609ZM58.7129 8.45801V13.4346H57.8584V9.1416H55.647V13.4346H54.7925V8.45801H58.7129ZM63.0332 10.5361V11.2163H60.3911V10.5361H63.0332ZM60.603 8.45801V13.4346H59.7451V8.45801H60.603ZM63.6929 8.45801V13.4346H62.8384V8.45801H63.6929ZM68.6831 10.8096V11.083C68.6831 11.459 68.6341 11.7962 68.5361 12.0947C68.4382 12.3932 68.298 12.6473 68.1157 12.8569C67.9357 13.0666 67.7192 13.2272 67.4663 13.3389C67.2134 13.4482 66.9331 13.5029 66.6255 13.5029C66.3201 13.5029 66.041 13.4482 65.7881 13.3389C65.5374 13.2272 65.3198 13.0666 65.1353 12.8569C64.9507 12.6473 64.8071 12.3932 64.7046 12.0947C64.6043 11.7962 64.5542 11.459 64.5542 11.083V10.8096C64.5542 10.4336 64.6043 10.0975 64.7046 9.80127C64.8049 9.50277 64.9461 9.2487 65.1284 9.03906C65.313 8.82715 65.5306 8.6665 65.7812 8.55713C66.0342 8.44548 66.3133 8.38965 66.6187 8.38965C66.9263 8.38965 67.2065 8.44548 67.4595 8.55713C67.7124 8.6665 67.93 8.82715 68.1123 9.03906C68.2946 9.2487 68.4347 9.50277 68.5327 9.80127C68.633 10.0975 68.6831 10.4336 68.6831 10.8096ZM67.8252 11.083V10.8027C67.8252 10.5247 67.7979 10.2798 67.7432 10.0679C67.6908 9.85368 67.6121 9.6748 67.5073 9.53125C67.4048 9.38542 67.2783 9.27604 67.1279 9.20312C66.9775 9.12793 66.8078 9.09033 66.6187 9.09033C66.4295 9.09033 66.2609 9.12793 66.1128 9.20312C65.9647 9.27604 65.8382 9.38542 65.7334 9.53125C65.6309 9.6748 65.5522 9.85368 65.4976 10.0679C65.4429 10.2798 65.4155 10.5247 65.4155 10.8027V11.083C65.4155 11.361 65.4429 11.6071 65.4976 11.8213C65.5522 12.0355 65.632 12.2166 65.7368 12.3647C65.8439 12.5106 65.9715 12.6211 66.1196 12.6963C66.2677 12.7692 66.4364 12.8057 66.6255 12.8057C66.8169 12.8057 66.9867 12.7692 67.1348 12.6963C67.2829 12.6211 67.4082 12.5106 67.5107 12.3647C67.6133 12.2166 67.6908 12.0355 67.7432 11.8213C67.7979 11.6071 67.8252 11.361 67.8252 11.083ZM73.1504 11.1855H71.8823L71.8755 10.5601H72.9829C73.1698 10.5601 73.3281 10.5327 73.458 10.478C73.5902 10.4211 73.6904 10.3402 73.7588 10.2354C73.8271 10.1283 73.8613 9.99951 73.8613 9.84912C73.8613 9.68278 73.8294 9.5472 73.7656 9.44238C73.7018 9.33757 73.6038 9.26123 73.4717 9.21338C73.3418 9.16553 73.1755 9.1416 72.9727 9.1416H72.1421V13.4346H71.2842V8.45801H72.9727C73.2461 8.45801 73.4899 8.48421 73.7041 8.53662C73.9206 8.58903 74.104 8.67106 74.2544 8.78271C74.4071 8.89209 74.5221 9.03109 74.5996 9.19971C74.6794 9.36833 74.7192 9.56885 74.7192 9.80127C74.7192 10.0063 74.6702 10.1943 74.5723 10.3652C74.4743 10.5339 74.3296 10.6717 74.1382 10.7788C73.9468 10.8859 73.7087 10.9497 73.4238 10.9702L73.1504 11.1855ZM73.1128 13.4346H71.6123L71.9985 12.7544H73.1128C73.3065 12.7544 73.4683 12.7225 73.5981 12.6587C73.728 12.5926 73.8249 12.5026 73.8887 12.3887C73.9548 12.2725 73.9878 12.1369 73.9878 11.9819C73.9878 11.8201 73.9593 11.68 73.9023 11.5615C73.8454 11.4408 73.7554 11.3485 73.6323 11.2847C73.5093 11.2186 73.3486 11.1855 73.1504 11.1855H72.1865L72.1934 10.5601H73.4478L73.6426 10.7959C73.916 10.805 74.1405 10.8654 74.3159 10.9771C74.4937 11.0887 74.6258 11.2334 74.7124 11.4111C74.799 11.5889 74.8423 11.7803 74.8423 11.9854C74.8423 12.3021 74.7728 12.5675 74.6338 12.7817C74.4971 12.9959 74.3 13.1589 74.0425 13.2705C73.785 13.3799 73.4751 13.4346 73.1128 13.4346Z" fill="black"/>
</svg>
