<svg width="110" height="37" viewBox="0 0 110 37" fill="none" xmlns="http://www.w3.org/2000/svg">
<rect y="0.814453" width="110" height="35.8333" rx="5" fill="white"/>
<g clip-path="url(#clip0_11998_265558)">
<path d="M55.1888 20.1646C53.3632 20.1646 51.8716 21.589 51.8716 23.5464C51.8716 25.4959 53.3632 26.9281 55.1888 26.9281C57.0144 26.9281 58.506 25.4959 58.506 23.5464C58.506 21.589 57.0144 20.1646 55.1888 20.1646ZM55.1888 25.5993C54.1867 25.5993 53.3243 24.7558 53.3243 23.5464C53.3243 22.329 54.1867 21.4935 55.1888 21.4935C56.191 21.4935 57.0532 22.329 57.0532 23.5464C57.0532 24.7558 56.1832 25.5993 55.1888 25.5993ZM47.9484 20.1646C46.1228 20.1646 44.6312 21.589 44.6312 23.5464C44.6312 25.4959 46.1228 26.9281 47.9484 26.9281C49.7741 26.9281 51.2657 25.4959 51.2657 23.5464C51.2657 21.589 49.7741 20.1646 47.9484 20.1646ZM47.9484 25.5993C46.9462 25.5993 46.084 24.7558 46.084 23.5464C46.084 22.329 46.9462 21.4935 47.9484 21.4935C48.9506 21.4935 49.8129 22.329 49.8129 23.5464C49.8129 24.7558 48.9506 25.5993 47.9484 25.5993ZM39.3407 21.207V22.6393H42.6968C42.5958 23.443 42.3317 24.0397 41.9355 24.4456C41.4461 24.9468 40.6847 25.4959 39.3486 25.4959C37.2821 25.4959 35.6662 23.7931 35.6662 21.6765C35.6662 19.5599 37.2821 17.8571 39.3486 17.8571C40.4595 17.8571 41.2752 18.3026 41.8733 18.8836L42.86 17.873C42.021 17.0534 40.9101 16.4248 39.3407 16.4248C36.513 16.4248 34.1357 18.7801 34.1357 21.6844C34.1357 24.5808 36.513 26.9441 39.3407 26.9441C40.8712 26.9441 42.021 26.4348 42.9221 25.472C43.8466 24.5251 44.134 23.1883 44.134 22.1141C44.134 21.7799 44.1107 21.4696 44.0563 21.215H39.3407V21.207ZM74.5405 22.321C74.2686 21.5651 73.4296 20.1646 71.7127 20.1646C70.0114 20.1646 68.5975 21.5332 68.5975 23.5464C68.5975 25.4401 69.9958 26.9281 71.8758 26.9281C73.3907 26.9281 74.2686 25.9812 74.626 25.4322L73.4995 24.6604C73.1266 25.2253 72.6139 25.5993 71.8758 25.5993C71.1378 25.5993 70.6096 25.2491 70.2755 24.5728L74.6959 22.7029L74.5405 22.321ZM70.0347 23.4509C69.9958 22.146 71.0213 21.4776 71.7593 21.4776C72.3342 21.4776 72.8237 21.772 72.9867 22.1936L70.0347 23.4509ZM66.4456 26.7292H67.8983V16.7829H66.4456V26.7292ZM64.0684 20.9206H64.014C63.6877 20.5227 63.0662 20.1646 62.2738 20.1646C60.6191 20.1646 59.1042 21.6526 59.1042 23.5623C59.1042 25.4561 60.6191 26.9361 62.2738 26.9361C63.0584 26.9361 63.6877 26.578 64.014 26.1642H64.0606V26.6496C64.0606 27.9466 63.3847 28.6389 62.2971 28.6389C61.4115 28.6389 60.8599 27.9864 60.6347 27.4374L59.3683 27.9785C59.7335 28.8776 60.6967 29.9756 62.2971 29.9756C63.9985 29.9756 65.4357 28.9492 65.4357 26.4507V20.3715H64.0606V20.9206H64.0684ZM62.3981 25.5993C61.396 25.5993 60.5569 24.7399 60.5569 23.5623C60.5569 22.3687 61.396 21.5014 62.3981 21.5014C63.3847 21.5014 64.1616 22.3767 64.1616 23.5623C64.1693 24.7399 63.3925 25.5993 62.3981 25.5993ZM81.3458 16.7829H77.8732V26.7292H79.326V22.9576H81.3536C82.9617 22.9576 84.5387 21.764 84.5387 19.8702C84.5387 17.9765 82.9462 16.7829 81.3458 16.7829ZM81.3769 21.5731H79.3182V18.1595H81.3769C82.4645 18.1595 83.0782 19.0825 83.0782 19.8622C83.0782 20.6421 82.4645 21.5731 81.3769 21.5731ZM90.3419 20.1487C89.2932 20.1487 88.2056 20.6261 87.755 21.6685L89.0446 22.2176C89.3165 21.6685 89.8292 21.4855 90.3652 21.4855C91.111 21.4855 91.8801 21.947 91.8879 22.7666V22.8701C91.6237 22.7188 91.0644 22.4881 90.373 22.4881C88.9824 22.4881 87.5763 23.2679 87.5763 24.724C87.5763 26.0528 88.7105 26.9122 89.9846 26.9122C90.9557 26.9122 91.4995 26.4666 91.8335 25.9415H91.8802V26.7133H93.2785V22.9019C93.2862 21.1354 91.9967 20.1487 90.3419 20.1487ZM90.1632 25.5993C89.6893 25.5993 89.029 25.3526 89.029 24.7558C89.029 23.992 89.8525 23.6976 90.5672 23.6976C91.2042 23.6976 91.5072 23.8408 91.8879 24.0317C91.7792 24.9468 91.0022 25.5993 90.1632 25.5993ZM98.3826 20.3636L96.7201 24.6763H96.6734L94.9484 20.3636H93.3876L95.9742 26.395L94.4984 29.7449H96.0134L99.9984 20.3636H98.3826ZM85.3312 26.7292H86.7839V16.7829H85.3312V26.7292Z" fill="black"/>
<path d="M10.3701 8.85843C10.1448 9.10511 10.0127 9.48704 10.0127 9.97243V27.5734C10.0127 28.0668 10.1448 28.4487 10.3701 28.6873L10.4244 28.7431L20.0498 18.8923V18.7729V18.6535L10.4244 8.80273L10.3701 8.85843Z" fill="url(#paint0_linear_11998_265558)"/>
<path d="M23.2533 22.1833L20.0449 18.8971V18.7777V18.6583L23.2533 15.3721L23.3233 15.4119L27.1222 17.6239C28.2098 18.2526 28.2098 19.287 27.1222 19.9235L23.3233 22.1356L23.2533 22.1833Z" fill="url(#paint1_linear_11998_265558)"/>
<path d="M23.3233 22.1283L20.045 18.7705L10.3652 28.685C10.7226 29.0748 11.313 29.1226 11.9811 28.7328L23.3233 22.1283Z" fill="url(#paint2_linear_11998_265558)"/>
<path d="M23.3233 15.4218L11.9733 8.8175C11.3052 8.4276 10.7148 8.47534 10.3574 8.86524L20.0449 18.7797L23.3233 15.4218Z" fill="url(#paint3_linear_11998_265558)"/>
<path opacity="0.2" d="M23.2534 22.0576L11.9733 28.6222C11.3441 28.9882 10.777 28.9643 10.4196 28.6301L10.3652 28.6858L10.4196 28.7415C10.7847 29.0757 11.3441 29.0996 11.9733 28.7335L23.3233 22.1292L23.2534 22.0576Z" fill="#F7F7F7"/>
<path opacity="0.12" d="M10.3701 28.5828C10.1448 28.3361 10.0127 27.9541 10.0127 27.4688V27.5881C10.0127 28.0814 10.1448 28.4633 10.3701 28.7021L10.4244 28.6464L10.3701 28.5828Z" fill="#F7F7F7"/>
<path opacity="0.12" d="M27.1246 19.8049L23.248 22.0568L23.318 22.1284L27.1169 19.9163C27.6606 19.5981 27.9325 19.1843 27.9325 18.7705C27.8937 19.1445 27.6218 19.5185 27.1246 19.8049Z" fill="#F7F7F7"/>
<path opacity="0.25" d="M11.9732 8.92497L27.1221 17.7413C27.6115 18.0277 27.8912 18.3937 27.9378 18.7757C27.9378 18.362 27.6659 17.9402 27.1221 17.6299L11.9732 8.81357C10.8856 8.18496 10 8.71013 10 9.98324V10.1026C10 8.82153 10.8934 8.29636 11.9732 8.92497Z" fill="black"/>
<path d="M34.9703 14.2213H34.3955V12.6219H34.8538C35.2578 12.2639 35.452 11.6591 35.4443 10.7918V8.43652H38.5595V12.6219H39.08V14.2213H38.5051V13.2107H34.9703V14.2213ZM36.0503 10.7998C36.058 11.5557 35.9103 12.1604 35.6074 12.6299H37.9613V9.02535H36.0503V10.7998Z" fill="black" stroke="black" stroke-width="0.155373" stroke-miterlimit="10"/>
<path d="M43.7503 12.5822C43.2919 13.0676 42.7249 13.3063 42.0412 13.3063C41.3575 13.3063 40.7904 13.0676 40.3321 12.5822C39.8737 12.0968 39.6484 11.508 39.6484 10.8158C39.6484 10.1235 39.8737 9.52671 40.3321 9.04929C40.7904 8.56391 41.3575 8.3252 42.0412 8.3252C42.717 8.3252 43.2842 8.56391 43.7503 9.04929C44.2086 9.53467 44.4417 10.1235 44.4417 10.8158C44.4417 11.516 44.2086 12.1048 43.7503 12.5822ZM40.7749 12.1844C41.1167 12.5424 41.544 12.7175 42.0412 12.7175C42.5384 12.7175 42.9656 12.5424 43.3074 12.1844C43.6493 11.8263 43.8279 11.3727 43.8279 10.8158C43.8279 10.2588 43.657 9.80521 43.3074 9.44715C42.9656 9.08908 42.5384 8.91402 42.0412 8.91402C41.544 8.91402 41.1167 9.08908 40.7749 9.44715C40.4331 9.80521 40.2544 10.2588 40.2544 10.8158C40.2544 11.3727 40.4331 11.8263 40.7749 12.1844Z" fill="black" stroke="black" stroke-width="0.155373" stroke-miterlimit="10"/>
<path d="M47.456 13.3037C46.7724 13.3037 46.1975 13.0649 45.7314 12.5875C45.2652 12.1101 45.0322 11.5213 45.0322 10.8051C45.0322 10.089 45.2652 9.5002 45.7314 9.02277C46.1975 8.54535 46.7724 8.30664 47.456 8.30664C48.1552 8.30664 48.7301 8.56922 49.1651 9.08643L48.7456 9.5002C48.4271 9.09439 47.9998 8.89547 47.4482 8.89547C46.9433 8.89547 46.5082 9.07052 46.1586 9.42062C45.8091 9.77073 45.6381 10.2322 45.6381 10.7972C45.6381 11.3621 45.8091 11.8236 46.1586 12.1738C46.5082 12.5239 46.9355 12.6989 47.4482 12.6989C48.0076 12.6989 48.4815 12.4682 48.8776 12.0067L49.2971 12.4363C49.0874 12.6989 48.8156 12.9058 48.497 13.057C48.1785 13.232 47.8289 13.3037 47.456 13.3037Z" fill="black" stroke="black" stroke-width="0.155373" stroke-miterlimit="10"/>
<path d="M51.7226 13.2107H51.1244V9.02535H49.8193V8.43652H53.02V9.02535H51.7148V13.2107H51.7226Z" fill="black" stroke="black" stroke-width="0.155373" stroke-miterlimit="10"/>
<path d="M57.1402 8.43652L55.3767 12.4628C55.1358 13.0277 54.7708 13.3142 54.2891 13.3142C54.1493 13.3142 53.9939 13.2824 53.823 13.2108L53.9783 12.6458C54.0793 12.7015 54.1803 12.7333 54.2891 12.7333C54.4289 12.7333 54.5377 12.7095 54.6154 12.6538C54.6931 12.5981 54.763 12.4946 54.8252 12.3514L54.996 11.9695L53.4268 8.43652H54.1338L55.2835 11.1737H55.3068L56.4333 8.43652H57.1402Z" fill="black" stroke="black" stroke-width="0.155373" stroke-miterlimit="10"/>
<path d="M57.8135 13.2107V8.43652H61.1851V13.2107H60.5868V9.02534H58.4116V13.2107H57.8135Z" fill="black" stroke="black" stroke-width="0.155373" stroke-miterlimit="10"/>
<path d="M62.248 13.2107V8.43652H62.8463V10.4815H65.1769V8.43652H65.775V13.2107H65.1769V11.0544H62.8463V13.2107H62.248Z" fill="black" stroke="black" stroke-width="0.155373" stroke-miterlimit="10"/>
<path d="M70.6673 12.5822C70.2089 13.0676 69.6418 13.3063 68.9582 13.3063C68.2745 13.3063 67.7074 13.0676 67.2491 12.5822C66.7907 12.0968 66.5654 11.508 66.5654 10.8158C66.5654 10.1235 66.7907 9.52671 67.2491 9.04929C67.7074 8.56391 68.2745 8.3252 68.9582 8.3252C69.634 8.3252 70.2011 8.56391 70.6673 9.04929C71.1256 9.53467 71.3587 10.1235 71.3587 10.8158C71.3509 11.516 71.1256 12.1048 70.6673 12.5822ZM67.6918 12.1844C68.0337 12.5424 68.4609 12.7175 68.9582 12.7175C69.4553 12.7175 69.8826 12.5424 70.2244 12.1844C70.5663 11.8263 70.7449 11.3727 70.7449 10.8158C70.7449 10.2588 70.574 9.80521 70.2244 9.44715C69.8826 9.08908 69.4553 8.91402 68.9582 8.91402C68.4609 8.91402 68.0337 9.08908 67.6918 9.44715C67.35 9.80521 67.1713 10.2588 67.1713 10.8158C67.1713 11.3727 67.3423 11.8263 67.6918 12.1844Z" fill="black" stroke="black" stroke-width="0.155373" stroke-miterlimit="10"/>
<path d="M73.7969 13.2107V8.43652H75.4827C75.8478 8.43652 76.1663 8.56383 76.4305 8.80255C76.6946 9.04922 76.8345 9.35954 76.8345 9.73352C76.8345 9.96427 76.78 10.1632 76.6635 10.3303C76.547 10.5054 76.3994 10.6327 76.2052 10.7202V10.7441C76.4382 10.8236 76.6247 10.9589 76.7723 11.1578C76.9199 11.3568 76.9975 11.5796 76.9975 11.8421C76.9975 12.232 76.8577 12.5583 76.578 12.8129C76.2984 13.0675 75.9644 13.2028 75.5837 13.2028H73.7969V13.2107ZM74.395 10.4815H75.4827C75.708 10.4815 75.8866 10.4019 76.0265 10.2507C76.1663 10.0995 76.2285 9.93245 76.2285 9.74943C76.2285 9.56642 76.1663 9.39932 76.0265 9.24814C75.8945 9.09696 75.7235 9.01738 75.506 9.01738H74.395V10.4815ZM74.395 12.6219H75.5992C75.8323 12.6219 76.0187 12.5424 76.1585 12.3753C76.2984 12.2082 76.376 12.0331 76.376 11.8342C76.376 11.6353 76.3061 11.4602 76.1508 11.3011C76.0032 11.1419 75.809 11.0544 75.5681 11.0544H74.3873V12.6219H74.395Z" fill="black" stroke="black" stroke-width="0.155373" stroke-miterlimit="10"/>
</g>
<defs>
<linearGradient id="paint0_linear_11998_265558" x1="19.195" y1="9.78917" x2="5.845" y2="22.8231" gradientUnits="userSpaceOnUse">
<stop stop-color="#00A0FF"/>
<stop offset="0.00657445" stop-color="#00A1FF"/>
<stop offset="0.2601" stop-color="#00BEFF"/>
<stop offset="0.5122" stop-color="#00D2FF"/>
<stop offset="0.7604" stop-color="#00DFFF"/>
<stop offset="1" stop-color="#00E3FF"/>
</linearGradient>
<linearGradient id="paint1_linear_11998_265558" x1="28.5395" y1="18.7788" x2="9.74177" y2="18.7788" gradientUnits="userSpaceOnUse">
<stop stop-color="#FFE000"/>
<stop offset="0.4087" stop-color="#FFBD00"/>
<stop offset="0.7754" stop-color="#FFA500"/>
<stop offset="1" stop-color="#FF9C00"/>
</linearGradient>
<linearGradient id="paint2_linear_11998_265558" x1="21.542" y1="20.5975" x2="3.43829" y2="38.2726" gradientUnits="userSpaceOnUse">
<stop stop-color="#FF3A44"/>
<stop offset="1" stop-color="#C31162"/>
</linearGradient>
<linearGradient id="paint3_linear_11998_265558" x1="7.92374" y1="3.00583" x2="16.0078" y2="10.8984" gradientUnits="userSpaceOnUse">
<stop stop-color="#32A071"/>
<stop offset="0.0685" stop-color="#2DA771"/>
<stop offset="0.4762" stop-color="#15CF74"/>
<stop offset="0.8009" stop-color="#06E775"/>
<stop offset="1" stop-color="#00F076"/>
</linearGradient>
<clipPath id="clip0_11998_265558">
<rect width="90" height="22.5" fill="white" transform="translate(10 7.48145)"/>
</clipPath>
</defs>
</svg>
