<svg width="129" height="21" viewBox="0 0 129 21" fill="none" xmlns="http://www.w3.org/2000/svg">
<rect width="129" height="21" rx="6" fill="#FBC100"/>
<g clip-path="url(#clip0_13343_68582)">
<path d="M13.3283 11.1634H9.43129C9.12251 11.1634 8.86985 11.416 8.86985 11.7248V15.9386C8.86985 16.2474 9.12251 16.5 9.43129 16.5H13.3939C13.5259 16.5 13.5259 16.3581 13.5259 16.3581V11.3541C13.5259 11.3541 13.5259 11.1634 13.3283 11.1634ZM18.5688 11.1634H14.6757C14.4386 11.1634 14.4741 11.4103 14.4741 11.4103V16.3627C14.4741 16.3627 14.4722 16.4999 14.6148 16.4999H18.5687C18.8775 16.4999 19.1302 16.2473 19.1302 15.9385V11.7248C19.1303 11.416 18.8776 11.1634 18.5688 11.1634ZM13.5259 7.84779C13.5259 7.84779 13.5259 7.65755 13.3379 7.65755H8.79728C8.4885 7.65755 8.23584 7.91021 8.23584 8.21895V9.97146C8.23584 10.2802 8.4885 10.5329 8.79728 10.5329H13.3533C13.5259 10.5329 13.5259 10.3832 13.5259 10.3832V7.84779ZM19.2028 7.65755H14.6477C14.4742 7.65755 14.4742 7.82284 14.4742 7.82284V10.3866C14.4742 10.3866 14.4742 10.5329 14.6851 10.5329H19.2028C19.5116 10.5329 19.7642 10.2802 19.7642 9.97146V8.21895C19.7642 7.91021 19.5116 7.65755 19.2028 7.65755ZM11.6163 7.24217C11.3594 7.24217 11.1248 7.2218 10.9191 7.1816C10.3965 7.0795 10.0373 6.88079 9.82102 6.57418C9.62722 6.29939 9.56791 5.96063 9.64468 5.56726C9.77917 4.87901 10.2414 4.5 10.9461 4.5C11.0952 4.5 11.259 4.51722 11.4329 4.55121C11.8753 4.63764 12.4412 4.89132 12.9466 5.2298C13.8042 5.80413 13.8466 6.16118 13.8039 6.3798C13.7411 6.70106 13.4408 6.93061 12.8859 7.08163C12.511 7.18364 12.0482 7.24217 11.6163 7.24217ZM10.9461 5.39984C10.6732 5.39984 10.5794 5.47608 10.5279 5.73979C10.4858 5.95539 10.5389 6.03069 10.5563 6.05544C10.6293 6.15893 10.8194 6.24523 11.0916 6.29837C11.2385 6.32708 11.42 6.34226 11.6163 6.34226C12.0479 6.34226 12.4282 6.27685 12.6805 6.20531C12.6989 6.20012 12.7274 6.1784 12.6969 6.16019C12.367 5.89146 11.7634 5.53261 11.2604 5.43432C11.1432 5.41149 11.0374 5.39984 10.9461 5.39984ZM16.3968 7.24217H16.3967C15.9648 7.24217 15.5021 7.18364 15.1271 7.08163C14.5722 6.93065 14.2719 6.70106 14.2092 6.37985C14.1665 6.16122 14.2088 5.80417 15.0664 5.22984C15.5718 4.89137 16.1377 4.63768 16.5802 4.55125C16.7541 4.51726 16.9179 4.50004 17.0669 4.50004C17.7717 4.50004 18.2339 4.87909 18.3683 5.56734C18.4451 5.96067 18.3859 6.29943 18.192 6.57422C17.9757 6.88087 17.6166 7.07954 17.0939 7.18164C16.8882 7.22176 16.6536 7.24217 16.3968 7.24217ZM15.3234 6.15463C15.2941 6.17161 15.3083 6.1984 15.3234 6.20277C15.5757 6.2753 15.9599 6.3423 16.3967 6.3423C16.5931 6.3423 16.7745 6.32712 16.9214 6.29841C17.1936 6.24523 17.3837 6.15897 17.4566 6.05548C17.4742 6.03073 17.5273 5.95543 17.4851 5.73983C17.4336 5.47612 17.3398 5.39988 17.0668 5.39988C16.9756 5.39988 16.8699 5.41149 16.7526 5.4344C16.2495 5.53265 15.6533 5.88585 15.3234 6.15463Z" fill="#333333"/>
</g>
<path d="M32.3477 6.89062V14H31.127V7.86719H27.9678V14H26.7471V6.89062H32.3477ZM33.4805 11.417V11.3047C33.4805 10.9238 33.5358 10.5706 33.6465 10.2451C33.7572 9.91634 33.9167 9.63151 34.125 9.39062C34.3366 9.14648 34.5938 8.95768 34.8965 8.82422C35.2025 8.6875 35.5475 8.61914 35.9316 8.61914C36.319 8.61914 36.6641 8.6875 36.9668 8.82422C37.2728 8.95768 37.5316 9.14648 37.7432 9.39062C37.9548 9.63151 38.1159 9.91634 38.2266 10.2451C38.3372 10.5706 38.3926 10.9238 38.3926 11.3047V11.417C38.3926 11.7979 38.3372 12.151 38.2266 12.4766C38.1159 12.8021 37.9548 13.0869 37.7432 13.3311C37.5316 13.5719 37.2744 13.7607 36.9717 13.8975C36.6689 14.0309 36.3255 14.0977 35.9414 14.0977C35.554 14.0977 35.2074 14.0309 34.9014 13.8975C34.5986 13.7607 34.3415 13.5719 34.1299 13.3311C33.9183 13.0869 33.7572 12.8021 33.6465 12.4766C33.5358 12.151 33.4805 11.7979 33.4805 11.417ZM34.6572 11.3047V11.417C34.6572 11.6546 34.6816 11.8792 34.7305 12.0908C34.7793 12.3024 34.8558 12.488 34.96 12.6475C35.0641 12.807 35.1976 12.9323 35.3604 13.0234C35.5231 13.1146 35.7168 13.1602 35.9414 13.1602C36.1595 13.1602 36.3483 13.1146 36.5078 13.0234C36.6706 12.9323 36.804 12.807 36.9082 12.6475C37.0124 12.488 37.0889 12.3024 37.1377 12.0908C37.1898 11.8792 37.2158 11.6546 37.2158 11.417V11.3047C37.2158 11.0703 37.1898 10.849 37.1377 10.6406C37.0889 10.429 37.0107 10.2419 36.9033 10.0791C36.7992 9.91634 36.6657 9.78939 36.5029 9.69824C36.3434 9.60384 36.153 9.55664 35.9316 9.55664C35.7103 9.55664 35.5182 9.60384 35.3555 9.69824C35.196 9.78939 35.0641 9.91634 34.96 10.0791C34.8558 10.2419 34.7793 10.429 34.7305 10.6406C34.6816 10.849 34.6572 11.0703 34.6572 11.3047ZM39.9844 8.7168H41.1611L41.1025 10.5771C41.0863 11.1175 41.0244 11.5814 40.917 11.9688C40.8096 12.3561 40.6696 12.6833 40.4971 12.9502C40.3245 13.2139 40.1292 13.4303 39.9111 13.5996C39.6963 13.7689 39.4701 13.9023 39.2324 14H38.8857V13.0723L39.0518 13.0625C39.1917 12.9128 39.3122 12.763 39.4131 12.6133C39.5173 12.4603 39.6051 12.2926 39.6768 12.1104C39.7484 11.9248 39.8037 11.7083 39.8428 11.4609C39.8851 11.2135 39.9128 10.9189 39.9258 10.5771L39.9844 8.7168ZM40.2969 8.7168H43.6465V14H42.4746V9.71289H40.2969V8.7168ZM38.6172 13.0625H44.3691V15.5723H43.1924V14H39.8086V15.5723H38.6123L38.6172 13.0625ZM48.1875 12.9404V10.4209C48.1875 10.2321 48.1533 10.0693 48.085 9.93262C48.0166 9.7959 47.9124 9.6901 47.7725 9.61523C47.6357 9.54036 47.4632 9.50293 47.2549 9.50293C47.0628 9.50293 46.8968 9.53548 46.7568 9.60059C46.6169 9.66569 46.5078 9.75358 46.4297 9.86426C46.3516 9.97493 46.3125 10.1003 46.3125 10.2402H45.1406C45.1406 10.0319 45.1911 9.83008 45.292 9.63477C45.3929 9.43945 45.5394 9.2653 45.7314 9.1123C45.9235 8.95931 46.153 8.83887 46.4199 8.75098C46.6868 8.66309 46.9863 8.61914 47.3184 8.61914C47.7155 8.61914 48.0671 8.68587 48.373 8.81934C48.6823 8.9528 48.9248 9.15462 49.1006 9.4248C49.2796 9.69173 49.3691 10.027 49.3691 10.4307V12.7793C49.3691 13.0202 49.3854 13.2367 49.418 13.4287C49.4538 13.6175 49.5042 13.7819 49.5693 13.9219V14H48.3633C48.3079 13.873 48.264 13.7119 48.2314 13.5166C48.2021 13.318 48.1875 13.126 48.1875 12.9404ZM48.3584 10.7871L48.3682 11.5146H47.5234C47.3053 11.5146 47.1133 11.5358 46.9473 11.5781C46.7812 11.6172 46.6429 11.6758 46.5322 11.7539C46.4215 11.832 46.3385 11.9264 46.2832 12.0371C46.2279 12.1478 46.2002 12.2731 46.2002 12.4131C46.2002 12.5531 46.2327 12.6816 46.2979 12.7988C46.363 12.9128 46.4574 13.0023 46.5811 13.0674C46.708 13.1325 46.861 13.165 47.04 13.165C47.2809 13.165 47.4909 13.1162 47.6699 13.0186C47.8522 12.9176 47.9954 12.7956 48.0996 12.6523C48.2038 12.5059 48.2591 12.3675 48.2656 12.2373L48.6465 12.7598C48.6074 12.8932 48.5407 13.0365 48.4463 13.1895C48.3519 13.3424 48.2282 13.4889 48.0752 13.6289C47.9255 13.7656 47.7448 13.8779 47.5332 13.9658C47.3249 14.0537 47.084 14.0977 46.8105 14.0977C46.4655 14.0977 46.1579 14.0293 45.8877 13.8926C45.6175 13.7526 45.4059 13.5654 45.2529 13.3311C45.0999 13.0934 45.0234 12.8249 45.0234 12.5254C45.0234 12.2454 45.0755 11.998 45.1797 11.7832C45.2871 11.5651 45.4434 11.3828 45.6484 11.2363C45.8568 11.0898 46.1107 10.9792 46.4102 10.9043C46.7096 10.8262 47.0514 10.7871 47.4355 10.7871H48.3584ZM51.7812 9.73242V16.0312H50.6045V8.7168H51.6885L51.7812 9.73242ZM55.2236 11.3096V11.4121C55.2236 11.7962 55.1781 12.1527 55.0869 12.4814C54.999 12.807 54.8672 13.0918 54.6914 13.3359C54.5189 13.5768 54.3057 13.764 54.0518 13.8975C53.7979 14.0309 53.5049 14.0977 53.1729 14.0977C52.8441 14.0977 52.556 14.0374 52.3086 13.917C52.0645 13.7933 51.8577 13.6191 51.6885 13.3945C51.5192 13.1699 51.3825 12.9062 51.2783 12.6035C51.1774 12.2975 51.1058 11.9622 51.0635 11.5977V11.2021C51.1058 10.8148 51.1774 10.4632 51.2783 10.1475C51.3825 9.83171 51.5192 9.5599 51.6885 9.33203C51.8577 9.10417 52.0645 8.92839 52.3086 8.80469C52.5527 8.68099 52.8376 8.61914 53.1631 8.61914C53.4951 8.61914 53.7897 8.68424 54.0469 8.81445C54.304 8.94141 54.5205 9.1237 54.6963 9.36133C54.8721 9.5957 55.0039 9.87891 55.0918 10.2109C55.1797 10.5397 55.2236 10.9059 55.2236 11.3096ZM54.0469 11.4121V11.3096C54.0469 11.0654 54.0241 10.8392 53.9785 10.6309C53.9329 10.4193 53.8613 10.2337 53.7637 10.0742C53.666 9.91471 53.5407 9.79102 53.3877 9.70312C53.238 9.61198 53.0573 9.56641 52.8457 9.56641C52.6374 9.56641 52.4583 9.60221 52.3086 9.67383C52.1589 9.74219 52.0335 9.83822 51.9326 9.96191C51.8317 10.0856 51.7536 10.2305 51.6982 10.3965C51.6429 10.5592 51.6038 10.7367 51.5811 10.9287V11.876C51.6201 12.1104 51.6868 12.3252 51.7812 12.5205C51.8757 12.7158 52.0091 12.8721 52.1816 12.9893C52.3574 13.1032 52.582 13.1602 52.8555 13.1602C53.0671 13.1602 53.2477 13.1146 53.3975 13.0234C53.5472 12.9323 53.6693 12.807 53.7637 12.6475C53.8613 12.4847 53.9329 12.2975 53.9785 12.0859C54.0241 11.8743 54.0469 11.6497 54.0469 11.4121ZM56 11.417V11.3047C56 10.9238 56.0553 10.5706 56.166 10.2451C56.2767 9.91634 56.4362 9.63151 56.6445 9.39062C56.8561 9.14648 57.1133 8.95768 57.416 8.82422C57.722 8.6875 58.0671 8.61914 58.4512 8.61914C58.8385 8.61914 59.1836 8.6875 59.4863 8.82422C59.7923 8.95768 60.0511 9.14648 60.2627 9.39062C60.4743 9.63151 60.6354 9.91634 60.7461 10.2451C60.8568 10.5706 60.9121 10.9238 60.9121 11.3047V11.417C60.9121 11.7979 60.8568 12.151 60.7461 12.4766C60.6354 12.8021 60.4743 13.0869 60.2627 13.3311C60.0511 13.5719 59.7939 13.7607 59.4912 13.8975C59.1885 14.0309 58.8451 14.0977 58.4609 14.0977C58.0736 14.0977 57.7269 14.0309 57.4209 13.8975C57.1182 13.7607 56.861 13.5719 56.6494 13.3311C56.4378 13.0869 56.2767 12.8021 56.166 12.4766C56.0553 12.151 56 11.7979 56 11.417ZM57.1768 11.3047V11.417C57.1768 11.6546 57.2012 11.8792 57.25 12.0908C57.2988 12.3024 57.3753 12.488 57.4795 12.6475C57.5837 12.807 57.7171 12.9323 57.8799 13.0234C58.0426 13.1146 58.2363 13.1602 58.4609 13.1602C58.679 13.1602 58.8678 13.1146 59.0273 13.0234C59.1901 12.9323 59.3236 12.807 59.4277 12.6475C59.5319 12.488 59.6084 12.3024 59.6572 12.0908C59.7093 11.8792 59.7354 11.6546 59.7354 11.417V11.3047C59.7354 11.0703 59.7093 10.849 59.6572 10.6406C59.6084 10.429 59.5303 10.2419 59.4229 10.0791C59.3187 9.91634 59.1852 9.78939 59.0225 9.69824C58.863 9.60384 58.6725 9.55664 58.4512 9.55664C58.2298 9.55664 58.0378 9.60384 57.875 9.69824C57.7155 9.78939 57.5837 9.91634 57.4795 10.0791C57.3753 10.2419 57.2988 10.429 57.25 10.6406C57.2012 10.849 57.1768 11.0703 57.1768 11.3047ZM63.168 8.7168V14H61.9912V8.7168H63.168ZM66.6152 8.7168L64.2373 11.8955H62.8945L62.7383 10.8311H63.7197L65.1455 8.7168H66.6152ZM65.2383 14L63.6465 11.6953L64.5742 11.0264L66.7861 14H65.2383ZM72.1035 11.4756H71.0879V10.8799H71.9082C72.1165 10.8799 72.2826 10.8522 72.4062 10.7969C72.5332 10.7415 72.6227 10.665 72.6748 10.5674C72.7301 10.4665 72.7578 10.3493 72.7578 10.2158C72.7578 10.0986 72.7301 9.98796 72.6748 9.88379C72.6227 9.77637 72.5332 9.68848 72.4062 9.62012C72.2793 9.55176 72.1068 9.51758 71.8887 9.51758C71.7096 9.51758 71.5485 9.54688 71.4053 9.60547C71.2653 9.66406 71.1546 9.74544 71.0732 9.84961C70.9919 9.95378 70.9512 10.0742 70.9512 10.2109H69.7744C69.7744 9.88216 69.8672 9.59896 70.0527 9.36133C70.2415 9.1237 70.4938 8.94141 70.8096 8.81445C71.1253 8.6875 71.472 8.62402 71.8496 8.62402C72.1719 8.62402 72.4616 8.6582 72.7188 8.72656C72.9759 8.79167 73.194 8.88932 73.373 9.01953C73.5553 9.14648 73.6937 9.30599 73.7881 9.49805C73.8857 9.68685 73.9346 9.90658 73.9346 10.1572C73.9346 10.3363 73.8923 10.5055 73.8076 10.665C73.723 10.8245 73.6009 10.9661 73.4414 11.0898C73.2819 11.2103 73.0882 11.3047 72.8604 11.373C72.6357 11.4414 72.3835 11.4756 72.1035 11.4756ZM71.0879 11.1338H72.1035C72.416 11.1338 72.6927 11.1647 72.9336 11.2266C73.1745 11.2852 73.3763 11.373 73.5391 11.4902C73.7018 11.6074 73.8239 11.7523 73.9053 11.9248C73.9899 12.0941 74.0322 12.2894 74.0322 12.5107C74.0322 12.7581 73.9785 12.9811 73.8711 13.1797C73.7669 13.375 73.6172 13.541 73.4219 13.6777C73.2298 13.8145 73.0003 13.9186 72.7334 13.9902C72.4665 14.0618 72.1719 14.0977 71.8496 14.0977C71.498 14.0977 71.1562 14.0391 70.8242 13.9219C70.4954 13.8047 70.2236 13.624 70.0088 13.3799C69.7972 13.1325 69.6914 12.8184 69.6914 12.4375H70.8682C70.8682 12.571 70.9089 12.6963 70.9902 12.8135C71.0716 12.9307 71.1888 13.0267 71.3418 13.1016C71.4948 13.1732 71.6787 13.209 71.8936 13.209C72.1149 13.209 72.2956 13.1748 72.4355 13.1064C72.5755 13.0348 72.6797 12.9421 72.748 12.8281C72.8164 12.7109 72.8506 12.5872 72.8506 12.457C72.8506 12.2812 72.8164 12.1396 72.748 12.0322C72.6797 11.9248 72.5755 11.8467 72.4355 11.7979C72.2956 11.7458 72.1198 11.7197 71.9082 11.7197H71.0879V11.1338ZM78.0117 12.9404V10.4209C78.0117 10.2321 77.9775 10.0693 77.9092 9.93262C77.8408 9.7959 77.7367 9.6901 77.5967 9.61523C77.46 9.54036 77.2874 9.50293 77.0791 9.50293C76.887 9.50293 76.721 9.53548 76.5811 9.60059C76.4411 9.66569 76.332 9.75358 76.2539 9.86426C76.1758 9.97493 76.1367 10.1003 76.1367 10.2402H74.9648C74.9648 10.0319 75.0153 9.83008 75.1162 9.63477C75.2171 9.43945 75.3636 9.2653 75.5557 9.1123C75.7477 8.95931 75.9772 8.83887 76.2441 8.75098C76.5111 8.66309 76.8105 8.61914 77.1426 8.61914C77.5397 8.61914 77.8913 8.68587 78.1973 8.81934C78.5065 8.9528 78.749 9.15462 78.9248 9.4248C79.1038 9.69173 79.1934 10.027 79.1934 10.4307V12.7793C79.1934 13.0202 79.2096 13.2367 79.2422 13.4287C79.278 13.6175 79.3285 13.7819 79.3936 13.9219V14H78.1875C78.1322 13.873 78.0882 13.7119 78.0557 13.5166C78.0264 13.318 78.0117 13.126 78.0117 12.9404ZM78.1826 10.7871L78.1924 11.5146H77.3477C77.1296 11.5146 76.9375 11.5358 76.7715 11.5781C76.6055 11.6172 76.4671 11.6758 76.3564 11.7539C76.2458 11.832 76.1628 11.9264 76.1074 12.0371C76.0521 12.1478 76.0244 12.2731 76.0244 12.4131C76.0244 12.5531 76.057 12.6816 76.1221 12.7988C76.1872 12.9128 76.2816 13.0023 76.4053 13.0674C76.5322 13.1325 76.6852 13.165 76.8643 13.165C77.1051 13.165 77.3151 13.1162 77.4941 13.0186C77.6764 12.9176 77.8197 12.7956 77.9238 12.6523C78.028 12.5059 78.0833 12.3675 78.0898 12.2373L78.4707 12.7598C78.4316 12.8932 78.3649 13.0365 78.2705 13.1895C78.1761 13.3424 78.0524 13.4889 77.8994 13.6289C77.7497 13.7656 77.569 13.8779 77.3574 13.9658C77.1491 14.0537 76.9082 14.0977 76.6348 14.0977C76.2897 14.0977 75.9821 14.0293 75.7119 13.8926C75.4417 13.7526 75.2301 13.5654 75.0771 13.3311C74.9242 13.0934 74.8477 12.8249 74.8477 12.5254C74.8477 12.2454 74.8997 11.998 75.0039 11.7832C75.1113 11.5651 75.2676 11.3828 75.4727 11.2363C75.681 11.0898 75.9349 10.9792 76.2344 10.9043C76.5339 10.8262 76.8757 10.7871 77.2598 10.7871H78.1826ZM86.459 8.7168V9.6543H83.8516V8.7168H86.459ZM84.1299 8.7168V14H82.9531V8.7168H84.1299ZM87.3818 8.7168V14H86.2002V8.7168H87.3818ZM88.4023 11.417V11.3047C88.4023 10.9238 88.4577 10.5706 88.5684 10.2451C88.679 9.91634 88.8385 9.63151 89.0469 9.39062C89.2585 9.14648 89.5156 8.95768 89.8184 8.82422C90.1243 8.6875 90.4694 8.61914 90.8535 8.61914C91.2409 8.61914 91.5859 8.6875 91.8887 8.82422C92.1947 8.95768 92.4535 9.14648 92.665 9.39062C92.8766 9.63151 93.0378 9.91634 93.1484 10.2451C93.2591 10.5706 93.3145 10.9238 93.3145 11.3047V11.417C93.3145 11.7979 93.2591 12.151 93.1484 12.4766C93.0378 12.8021 92.8766 13.0869 92.665 13.3311C92.4535 13.5719 92.1963 13.7607 91.8936 13.8975C91.5908 14.0309 91.2474 14.0977 90.8633 14.0977C90.4759 14.0977 90.1292 14.0309 89.8232 13.8975C89.5205 13.7607 89.2633 13.5719 89.0518 13.3311C88.8402 13.0869 88.679 12.8021 88.5684 12.4766C88.4577 12.151 88.4023 11.7979 88.4023 11.417ZM89.5791 11.3047V11.417C89.5791 11.6546 89.6035 11.8792 89.6523 12.0908C89.7012 12.3024 89.7777 12.488 89.8818 12.6475C89.986 12.807 90.1195 12.9323 90.2822 13.0234C90.445 13.1146 90.6387 13.1602 90.8633 13.1602C91.0814 13.1602 91.2702 13.1146 91.4297 13.0234C91.5924 12.9323 91.7259 12.807 91.8301 12.6475C91.9342 12.488 92.0107 12.3024 92.0596 12.0908C92.1117 11.8792 92.1377 11.6546 92.1377 11.417V11.3047C92.1377 11.0703 92.1117 10.849 92.0596 10.6406C92.0107 10.429 91.9326 10.2419 91.8252 10.0791C91.721 9.91634 91.5876 9.78939 91.4248 9.69824C91.2653 9.60384 91.0749 9.55664 90.8535 9.55664C90.6322 9.55664 90.4401 9.60384 90.2773 9.69824C90.1178 9.78939 89.986 9.91634 89.8818 10.0791C89.7777 10.2419 89.7012 10.429 89.6523 10.6406C89.6035 10.849 89.5791 11.0703 89.5791 11.3047ZM95.5703 8.7168V14H94.3936V8.7168H95.5703ZM99.0176 8.7168L96.6396 11.8955H95.2969L95.1406 10.8311H96.1221L97.5479 8.7168H99.0176ZM97.6406 14L96.0488 11.6953L96.9766 11.0264L99.1885 14H97.6406ZM101.361 13.4238L102.797 8.7168H104.057L101.938 14.8057C101.889 14.9359 101.825 15.0775 101.747 15.2305C101.669 15.3835 101.566 15.5283 101.439 15.665C101.316 15.805 101.161 15.9173 100.976 16.002C100.79 16.0898 100.565 16.1338 100.302 16.1338C100.198 16.1338 100.097 16.124 99.999 16.1045C99.9046 16.0882 99.8151 16.0703 99.7305 16.0508L99.7256 15.1523C99.7581 15.1556 99.7972 15.1589 99.8428 15.1621C99.8916 15.1654 99.9307 15.167 99.96 15.167C100.155 15.167 100.318 15.1426 100.448 15.0938C100.578 15.0482 100.684 14.9733 100.766 14.8691C100.85 14.765 100.922 14.625 100.98 14.4492L101.361 13.4238ZM100.551 8.7168L101.806 12.6719L102.016 13.9121L101.2 14.1221L99.2812 8.7168H100.551ZM108.275 8.7168V9.6543H105.668V8.7168H108.275ZM105.946 8.7168V14H104.77V8.7168H105.946ZM109.198 8.7168V14H108.017V8.7168H109.198ZM111.713 8.7168V14H110.536V8.7168H111.713ZM115.16 8.7168L112.782 11.8955H111.439L111.283 10.8311H112.265L113.69 8.7168H115.16ZM113.783 14L112.191 11.6953L113.119 11.0264L115.331 14H113.783ZM117.504 13.4238L118.939 8.7168H120.199L118.08 14.8057C118.031 14.9359 117.968 15.0775 117.89 15.2305C117.812 15.3835 117.709 15.5283 117.582 15.665C117.458 15.805 117.304 15.9173 117.118 16.002C116.933 16.0898 116.708 16.1338 116.444 16.1338C116.34 16.1338 116.239 16.124 116.142 16.1045C116.047 16.0882 115.958 16.0703 115.873 16.0508L115.868 15.1523C115.901 15.1556 115.94 15.1589 115.985 15.1621C116.034 15.1654 116.073 15.167 116.103 15.167C116.298 15.167 116.461 15.1426 116.591 15.0938C116.721 15.0482 116.827 14.9733 116.908 14.8691C116.993 14.765 117.064 14.625 117.123 14.4492L117.504 13.4238ZM116.693 8.7168L117.948 12.6719L118.158 13.9121L117.343 14.1221L115.424 8.7168H116.693Z" fill="#333333"/>
<defs>
<clipPath id="clip0_13343_68582">
<rect width="12" height="12" fill="white" transform="translate(8 4.5)"/>
</clipPath>
</defs>
</svg>
