<svg width="19" height="18" viewBox="0 0 19 18" fill="none" xmlns="http://www.w3.org/2000/svg">
<g clip-path="url(#clip0_8464_173317)">
<path d="M16.9776 2.41015C15.9856 1.4278 14.6435 0.880287 13.2473 0.888111C11.8512 0.895938 10.5153 1.45839 9.53432 2.45189C8.56595 1.43024 7.22713 0.84169 5.81969 0.818932C4.41245 0.796009 3.05515 1.34092 2.05416 2.33057C1.05335 3.32035 0.493145 4.6713 0.500063 6.07892C0.506959 7.48636 1.0804 8.83191 2.09108 9.81163L9.092 16.8083C9.20885 16.9266 9.3682 16.9931 9.53443 16.9931C9.70067 16.9931 9.86001 16.9266 9.97686 16.8083L16.9778 9.81163C17.9529 8.82666 18.5 7.49676 18.5 6.11079C18.5 4.72497 17.9528 3.39506 16.9778 2.41015H16.9776Z" fill="#FBC100"/>
</g>
<defs>
<clipPath id="clip0_8464_173317">
<rect width="18" height="18" fill="white" transform="translate(0.5)"/>
</clipPath>
</defs>
</svg>
